<svg preserveAspectRatio="none" width="100%" height="100%" overflow="visible" style="display: block;" viewBox="0 0 229 91.4089" fill="none" xmlns="http://www.w3.org/2000/svg">
<g id="Footer / Logo" clip-path="url(#clip0_0_5)">
<path id="Vector" d="M24.9462 54.8512C23.3133 55.9189 21.538 56.6642 19.6245 57.0871C17.4221 57.577 15.517 57.6063 13.8967 57.1792C12.2805 56.7522 11.037 55.9399 10.1702 54.7465C9.30353 53.5532 8.82621 52.0375 8.7341 50.1993C8.6378 48.223 8.86389 46.3011 9.41658 44.442C9.96926 42.583 10.8276 40.8662 11.9874 39.2919C13.1472 37.7175 14.5582 36.3777 16.2247 35.2681C17.8911 34.1585 19.7711 33.3713 21.8646 32.9065C23.9204 32.4501 25.7166 32.425 27.2407 32.8395C28.7689 33.2541 30.025 34.0371 31.0174 35.1843L36.9964 28.799C35.6189 27.0362 33.6217 25.8847 31.0132 25.3404C28.4047 24.8003 25.4319 24.9008 22.0948 25.6419C18.6154 26.4165 15.4961 27.6726 12.7327 29.4103C9.96508 31.1479 7.61198 33.2248 5.66921 35.6407C3.72644 38.0567 2.26098 40.7239 1.27704 43.6465C0.293091 46.5691 -0.121423 49.5713 0.0293091 52.6613C0.184228 55.8184 1.05931 58.4144 2.65038 60.4452C4.24144 62.4801 6.45218 63.8535 9.28678 64.5737C12.1214 65.2939 15.4333 65.2311 19.2309 64.3853C22.4591 63.6651 25.3816 62.5178 27.9901 60.9351C30.6028 59.3524 32.8094 57.2379 34.6182 54.5916L29.3091 50.6138C28.032 52.3724 26.5791 53.7835 24.9462 54.847V54.8512Z" fill="var(--fill-0, white)"/>
<path id="Vector_2" d="M55.9217 18.8839L33.7054 60.5247L42.9545 58.4773L47.4723 49.3703L64.7898 45.5139L67.0047 53.1554L75.6299 51.2503L64.6223 16.9494L55.9175 18.8839H55.9217ZM51.1485 42.0805L59.175 26.1485L63.0312 39.4342L51.1527 42.0805H51.1485Z" fill="var(--fill-0, white)"/>
<path id="Vector_3" d="M74.7507 14.7219L73.6955 21.8735L85.5113 19.2398L80.9767 50.0779L89.6606 48.156L94.1993 17.3221L106.116 14.7093L107.221 7.53681L74.7507 14.7219Z" fill="var(--fill-0, white)"/>
<path id="Vector_4" d="M135.09 22.69L136.09 15.7854L118.781 19.6376L120 11.837L140.244 7.27721L141.324 0L112.43 6.38535L106.84 44.3499L135.718 37.9688L136.731 30.8507L116.453 35.3644L117.76 26.5505L135.09 22.69Z" fill="var(--fill-0, white)"/>
<path id="Vector_5" d="M207.529 13.7044L214.224 2.08937L200.059 5.22971L185.895 8.36586L171.73 11.502L157.561 14.6382L143.397 17.7743L148.396 27.1576L147.466 33.4676L144.159 34.2045L143.857 36.206L152.901 34.192L153.194 32.1905L149.887 32.9275L150.866 26.2532L157.561 14.6382L162.561 24.0215L161.635 30.3315L158.328 31.0642L158.022 33.0698L167.066 31.0558L167.359 29.0544L164.051 29.7913L165.031 23.1129L171.73 11.502L176.729 20.8853L175.8 27.1911L172.492 27.9281L172.187 29.9337L181.235 27.9197L181.524 25.9182L178.216 26.6552L179.2 19.9767L185.895 8.36586L190.894 17.745L189.965 24.055L186.657 24.7919L186.351 26.7975L195.399 24.7835L195.688 22.7821L192.38 23.519L193.364 16.8406L200.059 5.22971L205.059 14.6088L204.129 20.9188L200.821 21.6558L200.52 23.6572L209.564 21.6432L209.857 19.6459L206.549 20.3829L207.529 13.7044Z" fill="var(--fill-0, white)"/>
<path id="Vector_6" d="M133.942 66.6086C135.307 64.0461 135.919 61.2198 135.772 58.1297C135.605 54.6251 134.206 52.1547 131.573 50.7143C128.939 49.2782 125.296 49.073 120.649 50.0946L105.546 53.436L99.9397 91.4089L108.435 89.5415L110.014 78.9564L117.4 77.3276L123.714 86.1541L132.787 84.1485L125.782 74.4553C126.523 74.0617 127.231 73.6346 127.901 73.174C130.559 71.361 132.569 69.1753 133.938 66.6086H133.942ZM124.949 66.9562C123.412 68.5766 121.222 69.6987 118.383 70.3226L111.06 71.9346L113.053 58.7117L119.861 57.2127C122.097 56.7187 123.839 56.7647 125.087 57.3509C126.335 57.9371 127 59.1304 127.088 60.9351C127.201 63.3301 126.49 65.3357 124.953 66.9562H124.949Z" fill="var(--fill-0, white)"/>
<path id="Vector_7" d="M136.936 83.2315L145.553 81.3263L151.268 43.3325L142.551 45.2083L136.936 83.2315Z" fill="var(--fill-0, white)"/>
<path id="Vector_8" d="M178.48 60.3154L163.515 40.5731L156.364 42.1559L150.64 80.1539L159.161 78.2781L162.753 54.4199L177.705 74.1622L184.844 72.5878L190.542 34.5939L182.076 36.4698L178.48 60.3154Z" fill="var(--fill-0, white)"/>
<path id="Vector_9" d="M216.745 57.4221C216.405 57.6608 216.066 57.891 215.727 58.1004C214.157 59.0593 212.47 59.7376 210.657 60.1353C208.312 60.6504 206.315 60.6964 204.665 60.2693C203.011 59.8464 201.747 59.0383 200.863 57.845C199.98 56.6558 199.498 55.1401 199.41 53.2978C199.314 51.2838 199.553 49.3493 200.131 47.4861C200.704 45.6228 201.592 43.9103 202.794 42.3485C203.991 40.7867 205.452 39.4468 207.177 38.333C208.898 37.2193 210.862 36.4153 213.064 35.9338C215.124 35.4816 216.967 35.3895 218.595 35.6617C220.22 35.9338 221.673 36.7042 222.954 37.9646L229 31.6337C227.271 29.9462 225.081 28.8408 222.439 28.3175C219.797 27.7941 216.682 27.9281 213.098 28.7194C209.547 29.5024 206.369 30.7627 203.568 32.5004C200.763 34.2422 198.376 36.319 196.413 38.7308C194.445 41.1468 192.967 43.8098 191.978 46.7324C190.986 49.6508 190.563 52.6572 190.71 55.7431C190.861 58.9001 191.744 61.4962 193.364 63.5227C194.985 65.5493 197.204 66.931 200.018 67.6596C202.831 68.3923 206.118 68.3421 209.882 67.513C212.579 66.9185 215.145 65.968 217.574 64.6616C220.002 63.3552 222.125 61.7809 223.942 59.9469L226.32 44.2704L218.44 46.008L216.749 57.4221H216.745Z" fill="var(--fill-0, white)"/>
<path id="Vector_10" d="M93.6341 66.1606L100.325 54.5456L86.1602 57.6859L71.9956 60.8304L57.8309 63.9707L43.6663 67.1111L29.5017 70.2514L34.5009 79.6306L33.5756 85.9405L30.2679 86.6775L29.9664 88.6831L39.0103 86.6649L39.2993 84.6635L35.9957 85.4004L36.9755 78.7261L43.6663 67.1111L48.6698 76.4902L47.7403 82.8002L44.4367 83.5371L44.1311 85.5428L53.175 83.5246L53.4681 81.5231L50.1604 82.2601L51.1401 75.5858L57.8309 63.9707L62.8344 73.3499L61.9091 79.6599L58.6014 80.3968L58.2957 82.3982L67.3396 80.3842L67.6327 78.3828L64.325 79.1197L65.3048 72.4413L71.9956 60.8304L76.9949 70.2095L76.0695 76.5195L72.7618 77.2565L72.4603 79.2579L81.5043 77.2439L81.7932 75.2425L78.4896 75.9794L79.4694 69.3009L86.1602 57.6901L91.1637 67.0692L90.2342 73.3792L86.9306 74.1161L86.625 76.1176L95.6689 74.1036L95.962 72.1021L92.6543 72.8391L93.6341 66.1606Z" fill="var(--fill-0, white)"/>
<path id="Vector_11" d="M82.2705 83.1812L83.8741 82.8421L83.6857 84.2196L84.498 84.0396C84.4896 83.9935 84.9837 80.4303 84.9837 80.4303L84.1756 80.6061L83.9704 82.1386L82.3459 82.4778L82.5385 80.9704L81.7429 81.1463L81.2321 84.7598L82.0779 84.5713L82.2705 83.177V83.1812Z" fill="var(--fill-0, white)"/>
<path id="Vector_12" d="M65.6439 88.189L66.1673 84.5713L66.9628 84.3955L66.5399 87.3181L68.311 86.9119L68.2022 87.6238L65.6439 88.189Z" fill="var(--fill-0, white)"/>
<path id="Vector_13" d="M92.6166 82.2517L93.14 78.634L93.9355 78.4582L93.521 81.3766L95.2837 80.9746L95.1749 81.6864L92.6166 82.2517Z" fill="var(--fill-0, white)"/>
<path id="Vector_14" d="M89.4428 82.9467L89.9662 79.3291L90.7659 79.1532L90.3472 82.0716L92.1142 81.6697L92.0011 82.3815L89.4428 82.9467Z" fill="var(--fill-0, white)"/>
<path id="Vector_15" d="M71.3215 86.7612C70.505 87.36 68.9977 87.5819 68.6041 86.5393C68.3906 85.974 68.5539 85.3041 68.8679 84.7891C69.2866 84.1024 69.9984 83.6502 70.7981 83.5329C71.0577 83.4953 71.3047 83.4953 71.5601 83.5664C71.9872 83.6879 72.2929 84.027 72.3682 84.4667C72.5148 85.346 72.0333 86.2378 71.3215 86.7612ZM71.1289 86.0703C71.3717 85.8191 71.5308 85.5051 71.5811 85.1617C71.6062 84.9859 71.602 84.8268 71.5434 84.6635C71.4513 84.3997 71.221 84.2238 70.9279 84.2238C70.0905 84.2238 69.3955 84.8854 69.3494 85.7144C69.3285 86.0787 69.4666 86.4179 69.8267 86.51C70.2705 86.6272 70.8065 86.4095 71.1289 86.0703Z" fill="var(--fill-0, white)"/>
<path id="Vector_16" d="M86.9683 79.9906L87.9565 79.7729L88.9404 83.0556L88.1114 83.2357L87.9188 82.5071L86.3654 82.8463L85.9132 83.7297L84.9544 83.9433L86.9641 79.9865L86.9683 79.9906ZM87.7513 81.8958L87.4373 80.7025L86.738 82.1135L87.7513 81.8958Z" fill="var(--fill-0, white)"/>
<path id="Vector_17" d="M77.9328 85.4758L77.1037 85.6558L77.5057 82.75L76.4003 82.9844L76.505 82.2894L79.5615 81.6111L79.4485 82.3229L78.3305 82.5699L77.9328 85.4758Z" fill="var(--fill-0, white)"/>
<path id="Vector_18" d="M73.1973 83.0179L75.8058 82.4443L75.6927 83.1394L73.8881 83.5497L73.7751 84.542L75.3368 84.1778L75.228 84.8519L73.6704 85.2078L73.5071 86.4514L72.7032 86.6314L73.1973 83.0179Z" fill="var(--fill-0, white)"/>
<path id="Vector_19" d="M60.2008 88.2225C60.2845 88.9636 59.6104 89.5373 58.907 89.6838L57.0731 90.09L57.2825 88.6873L57.6049 86.4639L59.2629 86.108C59.4597 86.0661 59.6565 86.0787 59.8449 86.1206C60.0877 86.1876 60.2552 86.3634 60.2971 86.6105C60.3515 86.9287 60.2594 87.2511 60.0459 87.4981L59.8323 87.7159C60.0375 87.8038 60.1715 87.9922 60.1966 88.2183L60.2008 88.2225ZM59.108 86.8156L58.2999 86.9915L58.1952 87.7326L59.0619 87.5484C59.309 87.494 59.5393 87.2804 59.5309 87.0083C59.5267 86.7068 59.108 86.8198 59.108 86.8198V86.8156ZM59.4262 88.4151C59.4136 88.3021 59.3425 88.2267 59.2336 88.1974C59.154 88.189 59.0745 88.1932 58.9949 88.2058L58.1031 88.39L57.9817 89.1814L58.8651 88.9971C59.1624 88.926 59.4597 88.7166 59.4304 88.4151H59.4262Z" fill="var(--fill-0, white)"/>
<path id="Vector_20" d="M60.5567 85.8149L61.3355 85.6432L62.1143 86.8826L63.0312 85.2664L63.9691 85.0612L62.5204 87.5149L62.3194 88.9259L61.5155 89.106L61.7207 87.6531L60.5567 85.8149Z" fill="var(--fill-0, white)"/>
</g>
<defs>
<clipPath id="clip0_0_5">
<rect width="229" height="91.4089" fill="white"/>
</clipPath>
</defs>
</svg>
