<svg width="36" height="53" viewBox="0 0 36 53" fill="none" xmlns="http://www.w3.org/2000/svg">
<g clip-path="url(#clip0_2078_105)">
<path d="M29.8768 23.8603C26.6499 22.8556 23.2493 23.8577 20.8197 25.9867C21.0323 26.5309 21.1685 27.2371 20.7808 27.6012L18.3603 29.8807C17.9675 30.2512 17.248 30.0351 16.7787 29.8948L14.4982 32.0573L16.2419 32.1808V34.9298L15.2009 35.0688V38.2513C17.7458 38.5446 19.9718 39.9018 21.289 42.0707C23.1209 45.0899 22.5946 48.8951 19.9757 51.2222L20.283 52.3607C20.3154 52.4803 20.2726 52.7607 20.1935 52.8469C20.1144 52.9331 19.8565 52.9961 19.6827 52.9961L2.48782 53.0013C2.21946 53.0013 1.95368 52.6565 2.01203 52.4481L2.35429 51.2209C0.145128 49.263 -0.574405 46.1447 0.470539 43.3494C1.52715 40.5244 4.08765 38.6128 7.15507 38.2591L7.16155 35.0662C6.76094 35.0469 6.39923 35.0032 6.11401 34.8668L6.08938 32.5127C6.08808 32.3725 6.38497 32.11 6.51073 32.1087L8.01591 32.0984C9.37201 30.6551 9.76483 28.2045 8.44764 26.9129C7.09154 25.5828 7.02153 23.4654 8.30243 22.0542C9.9956 20.1889 9.63 16.102 8.82231 13.5896L6.009 13.5189C4.30157 13.2963 2.94936 12.253 2.45541 10.5756C2.54098 10.4083 2.7147 10.2244 2.87547 10.1279L8.64988 10.142V5.90075C6.56648 4.72112 5.80546 2.38114 6.20865 0.00385922L16.1162 0C16.369 1.29027 16.1979 2.52393 15.7272 3.68684C15.2424 4.59505 14.6628 5.35017 13.7022 5.88274L13.6866 10.133H19.4416C20.6291 10.654 18.4861 13.4803 16.1927 13.5201L13.5427 13.5665C12.8776 15.6118 12.6183 17.827 13.0838 19.9908C13.1991 20.5285 13.3599 21.2733 13.7411 21.649C15.2488 23.1386 15.3733 25.4117 13.8616 26.9451C12.7104 28.1119 12.901 30.1392 13.9109 31.5633L16.1849 29.2851C15.9995 28.7731 15.7869 27.9987 16.2095 27.5947L18.5367 25.3705C18.9282 24.9962 19.7566 25.1506 20.2532 25.3963C22.3755 23.4654 25.0928 22.5121 27.9995 22.6472C32.8029 22.871 35.1845 26.7856 35.6343 31.3163C35.9597 34.5967 35.5721 37.8937 33.4965 40.4923C31.8059 42.6084 29.6447 43.5668 28.8733 45.4231C28.1175 47.2446 29.1144 49.1639 30.9606 49.883C33.3085 50.7977 35.4528 50.094 35.9636 50.6099C36.0803 50.7282 35.917 51.2145 35.7497 51.2132L33.1412 51.19C32.0483 51.1797 30.9943 50.8954 30.0583 50.3796C28.1667 49.335 27.2579 47.143 28.0786 45.1336C28.4649 44.1881 29.1793 43.4188 29.9286 42.7499L31.9135 40.9772C35.2493 37.9979 35.471 32.366 34.1227 28.3434C33.4394 26.3058 32.0328 24.5318 29.8806 23.8616L29.8768 23.8603ZM12.8686 10.124V5.45566C14.6252 4.53845 15.608 2.77735 15.3253 0.841311H6.98653C6.7791 2.76835 7.68791 4.57704 9.47184 5.43507L9.4861 10.1356L12.8698 10.1227L12.8686 10.124ZM16.0099 12.702C17.2739 12.7007 18.2916 12.0163 18.8115 10.9615H3.54444C4.05654 12.1257 5.22464 12.7161 6.49387 12.7136L16.0112 12.7007L16.0099 12.702ZM13.2679 32.0907C12.4329 30.8069 12.1464 29.6774 12.267 28.3293C12.3953 27.6115 12.7208 26.9515 13.2199 26.4383C14.4204 25.2046 14.3154 23.4525 13.1499 22.2291C12.713 21.7699 12.4602 21.0212 12.3085 20.3793C11.7653 18.0959 12.0012 15.8292 12.6391 13.5806L9.71038 13.5729C10.3081 15.6762 10.5246 17.7756 10.1784 19.9136C10.0008 21.0122 9.53277 21.8831 8.84824 22.7115C7.94591 23.8037 8.06129 25.3448 9.02845 26.3379C9.54314 26.8666 9.86725 27.4661 10.0345 28.1891C10.2004 29.5912 9.92171 30.9059 9.06345 32.0997L13.2692 32.0894L13.2679 32.0907ZM17.9481 29.1667L20.1935 27.0274C20.2791 26.7714 20.0963 26.262 19.8953 26.1244C19.6944 25.9867 19.0734 25.9276 18.8893 26.1064L16.8214 28.099C16.627 28.2868 16.85 28.8631 17.0354 29.0278C17.2013 29.1757 17.7614 29.3455 17.9481 29.1667ZM15.4459 32.932L6.93986 32.9372V34.2558L15.4472 34.2506V32.932H15.4459ZM19.4221 52.1626L19.0708 50.9134C21.9334 48.6494 22.3106 44.6808 20.108 41.8211C18.7506 40.0587 16.7411 39.1119 14.3906 38.9692L14.3569 35.0546H8.00425L7.97572 38.9692C5.84046 39.0991 4.02672 39.8915 2.65377 41.3876C0.0414118 44.2357 0.274774 48.5207 3.3007 50.9559L2.94807 52.1626H19.4208H19.4221Z" fill="white"/>
</g>
<defs>
<clipPath id="clip0_2078_105">
<rect width="36" height="53" fill="white"/>
</clipPath>
</defs>
</svg>
