<svg width="46" height="46" viewBox="0 0 46 46" fill="none" xmlns="http://www.w3.org/2000/svg">
<g clip-path="url(#clip0_2078_102)">
<path d="M40.78 46L32.1759 45.9824C31.0395 45.9798 30.5415 45.0157 30.4024 44.0641L28.5842 31.5451C27.844 26.4466 27.3398 21.4453 27.0703 16.3114C27.0393 15.7246 27.3808 15.2778 27.8118 14.9775C28.0303 11.9878 29.086 9.64427 31.7176 8.11851L31.6978 2.64899C31.694 1.4261 32.4082 0.0391634 33.7755 0.0315914L39.1146 -0.0012207C40.251 0.155268 41.1265 1.08915 41.1303 2.28805L41.1489 8.13491C43.7669 9.54204 44.902 12.0395 44.9889 14.9548C45.7366 15.1277 46.0433 15.6817 45.9949 16.4439C45.6 22.7628 44.866 28.9479 43.9581 35.22L42.6827 44.0326C42.5386 45.0296 41.9996 46.0013 40.7813 45.9988L40.78 46ZM39.2438 7.62128L40.3615 7.76641L40.3665 2.40542C40.3665 1.60531 39.8101 0.824129 38.9606 0.821605L34.0227 0.810247C33.2539 0.808985 32.5249 1.47785 32.5249 2.28174V7.7601L33.7643 7.62632L39.245 7.62001L39.2438 7.62128ZM44.1891 14.9371C44.1444 13.3697 43.8066 12.1279 43.1074 10.9795C42.2679 9.70358 41.1017 8.77853 39.6114 8.43401H33.3943C30.4459 9.05744 28.7097 11.8641 28.6674 14.9434L44.1879 14.9358L44.1891 14.9371ZM40.7813 45.1772C41.4445 45.1772 41.8344 44.6358 41.8518 44.0566L43.5036 32.6039C44.3096 27.0119 44.8946 21.5487 45.1914 15.7625L28.3135 15.7536C28.0477 15.7536 27.8478 16.0552 27.8664 16.2975C28.2092 22.369 28.9233 28.2929 29.7976 34.329L31.2047 44.0414C31.2954 44.6661 31.5959 45.1861 32.3001 45.1848L40.7838 45.176L40.7813 45.1772Z" fill="white"/>
<path d="M8.83156 45.1103L14.2464 45.0977L14.2514 28.5503L6.33403 18.4694C3.71479 19.3377 0.904295 17.8599 0.144232 15.1163C-0.559945 12.2402 1.39734 9.49913 4.20784 9.15208C7.06801 8.79872 9.58169 11.0716 9.50966 14.0966H8.71358C8.74711 11.9247 7.27542 10.2286 5.25106 9.97238C3.24037 9.71746 1.2955 11.0905 0.88815 13.1627C0.619892 14.527 1.08562 15.8672 2.04066 16.7821C2.99571 17.6971 4.34445 18.1615 5.74908 17.7867L3.98429 15.6438C3.92468 15.5719 3.85513 15.3435 3.85886 15.2513C3.86382 15.1352 4.11842 14.9371 4.24137 14.9371L19.5681 14.9295L23.3436 8.34819C23.4926 8.23587 23.8428 8.17277 23.9683 8.26489C24.0937 8.35702 24.0701 8.70407 23.9769 8.86434L20.4995 14.927L25.0698 14.9371C25.1531 14.9485 25.389 14.9737 25.4002 15.0519L25.4648 15.5075L22.5711 19.0613L15.0487 28.5693L15.0437 45.0952L20.3691 45.099C20.5269 45.099 20.7976 45.2731 20.8448 45.4069C20.9007 45.5634 20.6709 45.9281 20.4697 45.9281H8.94954C8.80175 45.9281 8.55585 45.7489 8.50742 45.629C8.44905 45.4851 8.67632 45.1091 8.8328 45.1091L8.83156 45.1103ZM15.3244 23.9655C15.0872 24.0197 14.7345 24.0172 14.6972 23.886C14.6674 23.7812 14.6749 23.5654 14.691 23.4102L19.0552 15.7511L5.15295 15.7561L11.8023 24.0992L14.6513 27.7578L24.1707 15.7688L19.9829 15.7536L15.3256 23.9655H15.3244Z" fill="white"/>
</g>
<defs>
<clipPath id="clip0_2078_102">
<rect width="46" height="46" fill="white"/>
</clipPath>
</defs>
</svg>
