<svg preserveAspectRatio="none" width="100%" height="100%" overflow="visible" style="display: block;" viewBox="0 0 200.418 80" fill="none" xmlns="http://www.w3.org/2000/svg">
<g id="Hero / Logo" clip-path="url(#clip0_0_11)">
<path id="Vector" d="M21.8326 48.0051C20.4035 48.9396 18.8498 49.5919 17.1751 49.962C15.2477 50.3907 13.5803 50.4164 12.1622 50.0426C10.7477 49.6688 9.65941 48.9579 8.90088 47.9135C8.14234 46.8691 7.7246 45.5426 7.64398 43.9339C7.5597 42.2042 7.75758 40.5222 8.24128 38.8951C8.72498 37.2681 9.47619 35.7657 10.4912 34.3878C11.5063 33.0099 12.7412 31.8373 14.1996 30.8662C15.6581 29.8951 17.3034 29.2062 19.1356 28.7994C20.9348 28.4 22.5069 28.378 23.8407 28.7408C25.1782 29.1036 26.2776 29.7888 27.146 30.7929L32.3788 25.2045C31.1732 23.6618 29.4253 22.654 27.1424 22.1776C24.8594 21.7049 22.2577 21.7929 19.3371 22.4415C16.292 23.1194 13.562 24.2188 11.1435 25.7395C8.72132 27.2603 6.66192 29.0779 4.96162 31.1923C3.26133 33.3068 1.97879 35.6411 1.11765 38.1989C0.256509 40.7567 -0.106268 43.3842 0.0256509 46.0886C0.161234 48.8516 0.927098 51.1236 2.31958 52.9009C3.71206 54.6819 5.64687 55.8838 8.12768 56.5141C10.6085 57.1444 13.5071 57.0895 16.8307 56.3492C19.6559 55.7189 22.2137 54.7149 24.4966 53.3297C26.7832 51.9445 28.7144 50.0939 30.2974 47.7779L25.6509 44.2966C24.5333 45.8357 23.2617 47.0707 21.8326 48.0015V48.0051Z" fill="var(--fill-0, white)"/>
<path id="Vector_2" d="M48.942 16.527L29.4986 52.9705L37.5933 51.1786L41.5472 43.2083L56.7032 39.8333L58.6417 46.521L66.1904 44.8536L56.5567 14.834L48.9383 16.527H48.942ZM44.7646 36.8284L51.7892 22.8849L55.1642 34.5124L44.7682 36.8284H44.7646Z" fill="var(--fill-0, white)"/>
<path id="Vector_3" d="M65.4209 12.8844L64.4975 19.1434L74.8384 16.8384L70.8699 43.8276L78.4699 42.1456L82.4421 15.1601L92.8711 12.8734L93.8385 6.59612L65.4209 12.8844Z" fill="var(--fill-0, white)"/>
<path id="Vector_4" d="M118.229 19.858L119.105 13.8152L103.956 17.1866L105.022 10.3596L122.74 6.36893L123.685 0L98.397 5.58838L93.505 38.8145L118.779 33.2298L119.665 27.0001L101.919 30.9505L103.062 23.2367L118.229 19.858Z" fill="var(--fill-0, white)"/>
<path id="Vector_5" d="M181.627 11.994L187.486 1.82859L175.09 4.57698L162.693 7.3217L150.296 10.0664L137.896 12.8111L125.499 15.5559L129.874 23.768L129.061 29.2905L126.166 29.9354L125.902 31.6871L133.817 29.9244L134.074 28.1728L131.179 28.8177L132.036 22.9765L137.896 12.8111L142.271 21.0233L141.461 26.5457L138.566 27.187L138.299 28.9423L146.214 27.1797L146.471 25.4281L143.576 26.073L144.433 20.2281L150.296 10.0664L154.671 18.2786L153.858 23.7974L150.963 24.4423L150.696 26.1976L158.614 24.435L158.867 22.6833L155.972 23.3283L156.833 17.4834L162.693 7.3217L167.068 15.5302L166.255 21.0526L163.36 21.6976L163.092 23.4529L171.011 21.6903L171.264 19.9386L168.369 20.5836L169.23 14.7387L175.09 4.57698L179.465 12.7855L178.651 18.3079L175.757 18.9529L175.493 20.7045L183.408 18.9419L183.664 17.1939L180.769 17.8389L181.627 11.994Z" fill="var(--fill-0, white)"/>
<path id="Vector_6" d="M117.225 58.2951C118.419 56.0524 118.954 53.5789 118.826 50.8744C118.68 47.8072 117.456 45.6452 115.151 44.3846C112.846 43.1277 109.658 42.9481 105.59 43.8422L92.3727 46.7665L87.466 80L94.9011 78.3656L96.2826 69.1017L102.747 67.6762L108.273 75.401L116.213 73.6457L110.083 65.1624C110.731 64.8179 111.351 64.4441 111.937 64.041C114.264 62.4543 116.023 60.5414 117.221 58.2951H117.225ZM109.354 58.5992C108.009 60.0174 106.092 60.9995 103.608 61.5455L97.1987 62.9563L98.943 51.3838L104.901 50.0719C106.858 49.6395 108.383 49.6798 109.475 50.1928C110.567 50.7059 111.149 51.7503 111.226 53.3297C111.325 55.4258 110.702 57.1811 109.357 58.5992H109.354Z" fill="var(--fill-0, white)"/>
<path id="Vector_7" d="M119.845 72.8432L127.386 71.1759L132.388 37.9241L124.759 39.5658L119.845 72.8432Z" fill="var(--fill-0, white)"/>
<path id="Vector_8" d="M156.203 52.7873L143.107 35.5091L136.848 36.8943L131.838 70.1498L139.296 68.5081L142.44 47.6277L155.525 64.9059L161.773 63.528L166.76 30.2762L159.351 31.9179L156.203 52.7873Z" fill="var(--fill-0, white)"/>
<path id="Vector_9" d="M189.692 50.2551C189.396 50.464 189.099 50.6656 188.802 50.8488C187.428 51.688 185.951 52.2816 184.364 52.6297C182.312 53.0805 180.564 53.1208 179.12 52.747C177.673 52.3769 176.566 51.6696 175.793 50.6253C175.02 49.5845 174.599 48.258 174.522 46.6456C174.437 44.883 174.646 43.19 175.152 41.5593C175.654 39.9285 176.431 38.4298 177.482 37.0629C178.531 35.696 179.809 34.5234 181.319 33.5486C182.825 32.5739 184.544 31.8703 186.471 31.4489C188.274 31.0531 189.887 30.9725 191.312 31.2107C192.734 31.4489 194.005 32.1231 195.127 33.2261L200.418 27.6854C198.905 26.2086 196.988 25.2412 194.676 24.7831C192.364 24.325 189.637 24.4423 186.501 25.1349C183.393 25.8202 180.612 26.9232 178.16 28.444C175.705 29.9684 173.617 31.786 171.898 33.8968C170.176 36.0112 168.882 38.3418 168.017 40.8996C167.149 43.4538 166.779 46.0849 166.907 48.7857C167.039 51.5487 167.812 53.8207 169.23 55.5943C170.648 57.368 172.59 58.5772 175.053 59.2149C177.515 59.8562 180.392 59.8122 183.686 59.0866C186.046 58.5663 188.293 57.7344 190.418 56.5911C192.543 55.4478 194.401 54.0699 195.991 52.4648L198.073 38.7449L191.176 40.2657L189.696 50.2551H189.692Z" fill="var(--fill-0, white)"/>
<path id="Vector_10" d="M81.9474 57.903L87.8032 47.7376L75.4064 50.486L63.0097 53.2381L50.613 55.9864L38.2162 58.7348L25.8195 61.4832L30.1948 69.6917L29.385 75.2141L26.4901 75.8591L26.2263 77.6144L34.1414 75.8481L34.3942 74.0965L31.503 74.7414L32.3605 68.9002L38.2162 58.7348L42.5952 66.9433L41.7817 72.4658L38.8905 73.1107L38.623 74.866L46.5381 73.0997L46.7946 71.3481L43.8997 71.993L44.7572 66.1518L50.613 55.9864L54.9919 64.1949L54.1821 69.7174L51.2872 70.3623L51.0197 72.114L58.9349 70.3513L59.1914 68.5997L56.2965 69.2447L57.154 63.3998L63.0097 53.2381L67.385 61.4466L66.5752 66.969L63.6803 67.6139L63.4164 69.3656L71.3316 67.6029L71.5844 65.8513L68.6932 66.4963L69.5507 60.6514L75.4064 50.4897L79.7854 58.6982L78.9719 64.2206L76.0807 64.8656L75.8132 66.6172L83.7283 64.8546L83.9848 63.1029L81.0899 63.7479L81.9474 57.903Z" fill="var(--fill-0, white)"/>
<path id="Vector_11" d="M72.0022 72.7992L73.4057 72.5024L73.2408 73.708L73.9517 73.5505C73.9443 73.5101 74.3767 70.3916 74.3767 70.3916L73.6695 70.5455L73.4899 71.8868L72.0682 72.1836L72.2367 70.8644L71.5405 71.0183L71.0934 74.1807L71.8336 74.0158L72.0022 72.7956V72.7992Z" fill="var(--fill-0, white)"/>
<path id="Vector_12" d="M57.4508 77.182L57.9088 74.0158L58.6051 73.8619L58.235 76.4198L59.785 76.0643L59.6897 76.6873L57.4508 77.182Z" fill="var(--fill-0, white)"/>
<path id="Vector_13" d="M81.057 71.9857L81.515 68.8196L82.2113 68.6657L81.8485 71.2198L83.3912 70.868L83.2959 71.491L81.057 71.9857Z" fill="var(--fill-0, white)"/>
<path id="Vector_14" d="M78.2793 72.594L78.7374 69.4279L79.4373 69.274L79.0709 71.8281L80.6172 71.4763L80.5183 72.0993L78.2793 72.594Z" fill="var(--fill-0, white)"/>
<path id="Vector_15" d="M62.4197 75.9324C61.7052 76.4564 60.386 76.6506 60.0415 75.7382C59.8546 75.2435 59.9975 74.6571 60.2724 74.2064C60.6388 73.6054 61.2618 73.2097 61.9617 73.107C62.1889 73.0741 62.4051 73.0741 62.6286 73.1364C63.0024 73.2426 63.2699 73.5395 63.3358 73.9242C63.4641 74.6938 63.0427 75.4743 62.4197 75.9324ZM62.2512 75.3277C62.4637 75.1079 62.6029 74.833 62.6469 74.5325C62.6689 74.3786 62.6652 74.2394 62.6139 74.0965C62.5333 73.8656 62.3318 73.7117 62.0753 73.7117C61.3424 73.7117 60.7341 74.2907 60.6938 75.0163C60.6755 75.3351 60.7964 75.6319 61.1115 75.7125C61.4999 75.8151 61.969 75.6246 62.2512 75.3277Z" fill="var(--fill-0, white)"/>
<path id="Vector_16" d="M76.1137 70.0069L76.9785 69.8163L77.8396 72.6893L77.114 72.8469L76.9455 72.2093L75.586 72.5061L75.1902 73.2793L74.3511 73.4662L76.11 70.0032L76.1137 70.0069ZM76.7989 71.6742L76.5241 70.6299L75.9121 71.8648L76.7989 71.6742Z" fill="var(--fill-0, white)"/>
<path id="Vector_17" d="M68.2058 74.8074L67.4803 74.965L67.8321 72.4218L66.8647 72.627L66.9563 72.0187L69.6313 71.425L69.5324 72.048L68.554 72.2642L68.2058 74.8074Z" fill="var(--fill-0, white)"/>
<path id="Vector_18" d="M64.0614 72.6563L66.3443 72.1543L66.2454 72.7626L64.666 73.1217L64.5671 73.9902L65.9339 73.6714L65.8386 74.2614L64.4755 74.5729L64.3326 75.6612L63.629 75.8188L64.0614 72.6563Z" fill="var(--fill-0, white)"/>
<path id="Vector_19" d="M52.687 77.2113C52.7603 77.8599 52.1703 78.362 51.5547 78.4902L49.9497 78.8457L50.1329 77.6181L50.4151 75.6722L51.8662 75.3607C52.0384 75.3241 52.2107 75.3351 52.3756 75.3717C52.5881 75.4304 52.7347 75.5843 52.7713 75.8005C52.8189 76.079 52.7383 76.3611 52.5514 76.5774L52.3646 76.7679C52.5441 76.8449 52.6614 77.0098 52.6834 77.2076L52.687 77.2113ZM51.7306 75.98L51.0234 76.1339L50.9318 76.7826L51.6903 76.6213C51.9065 76.5737 52.108 76.3868 52.1007 76.1486C52.0971 75.8848 51.7306 75.9837 51.7306 75.9837V75.98ZM52.0091 77.3799C51.9981 77.2809 51.9358 77.215 51.8405 77.1893C51.7709 77.182 51.7013 77.1857 51.6317 77.1967L50.8512 77.3579L50.7449 78.0505L51.5181 77.8892C51.7783 77.827 52.0384 77.6437 52.0128 77.3799H52.0091Z" fill="var(--fill-0, white)"/>
<path id="Vector_20" d="M52.9985 75.1042L53.6801 74.954L54.3617 76.0387L55.1642 74.6242L55.985 74.4446L54.7171 76.592L54.5412 77.8269L53.8376 77.9845L54.0172 76.7129L52.9985 75.1042Z" fill="var(--fill-0, white)"/>
</g>
<defs>
<clipPath id="clip0_0_11">
<rect width="200.418" height="80" fill="white"/>
</clipPath>
</defs>
</svg>
