<svg preserveAspectRatio="none" width="100%" height="100%" overflow="visible" style="display: block;" viewBox="0 0 41.0326 25.515" fill="none" xmlns="http://www.w3.org/2000/svg">
<g id="Logomark">
<path id="Vector" d="M17.7426 0L0 3.69078L6.24216 14.8086L5.0686 22.2786L0.925702 23.1421L0.538729 25.515L11.8697 23.1469L12.239 20.7789L8.09609 21.6448L9.33795 13.7394L17.7426 0.00239064" fill="var(--fill-0, white)"/>
<path id="Vector_2" d="M33.4449 18.6028C32.4229 19.2361 31.2872 19.6876 30.0936 19.9351C28.7076 20.2269 27.5054 20.2453 26.4869 19.9901C25.5489 19.784 24.7183 19.2705 24.1423 18.5406C23.5653 17.7411 23.2504 16.7984 23.2369 15.8305C23.1728 14.6731 23.3182 13.5139 23.6668 12.4028C24.1998 10.6971 25.2095 9.1589 26.5894 7.95031C27.9693 6.74173 29.6683 5.90751 31.5075 5.53555C32.8024 5.26287 33.9313 5.24931 34.8941 5.49488C35.8187 5.72034 36.6483 6.20776 37.2716 6.89178L41.0326 3.08858C40.1642 2.04091 38.908 1.35522 37.264 1.0315C35.62 0.707793 33.7484 0.767592 31.6491 1.2109C29.5619 1.63211 27.5674 2.39115 25.7535 3.45455C24.0633 4.44852 22.5605 5.7024 21.3071 7.16447C20.0929 8.58523 19.1567 10.1996 18.5426 11.9316C17.9269 13.6583 17.6626 15.4795 17.7636 17.2992C17.8648 19.1792 18.4153 20.7244 19.4152 21.9348C20.4151 23.1451 21.8078 23.9647 23.5935 24.3937C25.3757 24.8211 27.4632 24.7836 29.8559 24.2813C31.8009 23.8857 33.6643 23.1916 35.3721 22.2266C37.0356 21.2686 38.4588 19.9799 39.5429 18.4497L36.1992 16.0817C35.4539 17.076 34.52 17.9308 33.4449 18.6028Z" fill="var(--fill-0, white)"/>
</g>
</svg>
