<svg width="55" height="46" viewBox="0 0 55 46" fill="none" xmlns="http://www.w3.org/2000/svg">
<g clip-path="url(#clip0_2191_312)">
<path d="M28.2583 45.0716C28.492 45.2725 28.6273 45.5551 28.5388 45.7491C28.4251 45.9958 28.0712 46.0554 27.8615 45.8738L20.8176 39.766L20.8138 45.5011C20.7696 45.6771 20.5699 45.9597 20.4284 45.993C20.2603 46.0318 19.9785 45.7297 19.9785 45.5053L19.9836 39.7688L12.9119 45.8822C12.7514 46.0207 12.39 45.9944 12.2826 45.8434C12.1701 45.6854 12.2232 45.3182 12.3912 45.1727L19.9684 38.6506L19.9747 36.8617L4.22522 36.852C3.31662 36.852 2.40676 35.9763 2.40549 34.9357L2.39665 6.12578C1.46151 6.30591 0.666643 6.03295 0.214239 5.23067C-0.0802029 4.70967 -0.0738845 3.96559 0.233195 3.4058C0.492253 2.93192 1.03059 2.51346 1.69024 2.51346L19.981 2.51069L19.976 0.541712C19.976 0.35881 20.1643 0.0387304 20.3172 0.00408975C20.4701 -0.0305509 20.8037 0.231332 20.8037 0.419777L20.8062 2.51207H39.0717C40.0284 2.51207 40.7562 3.16609 40.8384 4.13187C40.9142 5.03114 40.3885 6.06204 39.4508 6.12024L38.4235 6.18398L38.4272 32.1575C38.4272 32.461 38.2187 32.6799 37.99 32.6979C37.8093 32.7118 37.597 32.4485 37.597 32.1561L37.5945 6.17151L3.22311 6.16735V34.6392C3.22311 35.4096 3.64645 35.9223 4.35033 35.9749L34.8851 35.9777C35.1176 35.9777 35.3413 36.137 35.3893 36.2978C35.4437 36.4765 35.2326 36.8645 35.0216 36.8645H20.8201L20.8075 38.645L28.2532 45.0743L28.2583 45.0716ZM40.0448 3.40303L0.827133 3.40996V5.27917L40.0448 5.27224V3.40303Z" fill="white"/>
<path d="M25.8162 30.8121L14.1801 30.7968L14.1624 22.1436C11.8321 21.6697 10.3245 19.2144 10.9033 16.7216C11.4859 14.2095 13.9236 12.634 16.2791 13.6539C16.964 11.8248 18.4653 10.654 20.2029 10.636C21.9405 10.6179 23.5416 11.732 24.2012 13.6525C26.4215 12.6576 28.8479 14.082 29.5037 16.5429C30.152 18.9705 28.7796 21.6184 26.2964 22.1519L26.28 30.2384C26.28 30.5308 26.0943 30.7663 25.8162 30.8121ZM25.4523 26.1577L25.4624 21.3801C26.7615 21.3011 27.78 20.6679 28.4093 19.4887C29.1398 18.1225 28.8997 16.432 27.9569 15.3318C26.9852 14.1984 25.3676 13.9185 24.1532 14.6778C24.0395 14.7485 23.6667 14.8247 23.6326 14.7111L23.486 14.2109C22.9691 12.0299 20.788 10.9962 18.9139 11.8553C17.9067 12.3167 17.1485 13.2271 16.9754 14.4312C16.8377 15.3845 15.3768 13.4973 13.4282 14.5988C12.6384 15.0464 11.8599 15.9235 11.659 17.0833C11.2736 19.3058 12.8191 21.3108 14.9712 21.3649L15.0078 26.155H25.4536L25.4523 26.1577ZM25.4586 27.0251L14.9825 27.0348L14.9851 29.9253L25.4611 29.9156L25.4586 27.0251Z" fill="white"/>
<path d="M53.8817 38.8088C53.3067 33.5573 46.1769 32.471 41.4304 34.178C38.5821 35.2034 37.4131 37.965 37.3967 41.1935L37.3752 45.5125C37.3752 45.6857 37.12 45.9531 36.9873 45.9725C36.8281 45.996 36.5361 45.6995 36.5361 45.518V42.2867C36.5336 38.486 37.2337 35.008 40.7114 33.5213C43.7999 32.2008 47.2536 32.1592 50.3989 33.3328C53.6163 34.5341 54.7953 37.304 54.9862 40.9108L55.0001 45.6011C54.952 45.7328 54.6879 46.0404 54.5616 45.996C54.4352 45.9517 54.2418 45.7605 54.1509 45.6289L54.1711 41.4567L53.8817 38.8102V38.8088Z" fill="white"/>
<path d="M50.4423 25.9264C50.4423 28.7503 48.3547 31.0394 45.7793 31.0394C43.2038 31.0394 41.1162 28.7503 41.1162 25.9264C41.1162 23.1025 43.2038 20.8135 45.7793 20.8135C48.3547 20.8135 50.4423 23.1025 50.4423 25.9264ZM49.6171 25.9278C49.6171 23.6055 47.8998 21.7224 45.7818 21.7224C43.6638 21.7224 41.9465 23.6055 41.9465 25.9278C41.9465 28.2501 43.6638 30.1332 45.7818 30.1332C47.8998 30.1332 49.6171 28.2501 49.6171 25.9278Z" fill="white"/>
</g>
<defs>
<clipPath id="clip0_2191_312">
<rect width="55" height="46" fill="white"/>
</clipPath>
</defs>
</svg>
