<svg width="55" height="46" viewBox="0 0 55 46" fill="none" xmlns="http://www.w3.org/2000/svg">
<g clip-path="url(#clip0_2191_103)">
<path d="M45.6446 20.7089C40.7146 19.8369 35.5193 20.7067 31.8074 22.5545C32.1323 23.0268 32.3402 23.6398 31.748 23.9557L28.0501 25.9342C27.4499 26.2557 26.3506 26.0682 25.6336 25.9465L22.1496 27.8233L24.8136 27.9305V30.3165L23.2231 30.437V33.1993C27.1112 33.4538 30.5121 34.6317 32.5245 36.5142C35.3232 39.1346 34.519 42.4372 30.518 44.457L30.9874 45.4451C31.0369 45.5489 30.9716 45.7923 30.8508 45.8671C30.7299 45.9419 30.3358 45.9967 30.0704 45.9967L3.80038 46.0011C3.39038 46.0011 2.98434 45.7019 3.07347 45.521L3.59637 44.4559C0.221263 42.7566 -0.878024 40.0501 0.718418 37.624C2.33269 35.1721 6.24456 33.513 10.9309 33.206L10.9408 30.4348C10.3288 30.4181 9.77615 30.3801 9.34039 30.2617L9.30276 28.2185C9.30078 28.0968 9.75436 27.8691 9.94649 27.868L12.2461 27.859C14.3179 26.6063 14.918 24.4794 12.9056 23.3584C10.8338 22.2039 10.7269 20.3662 12.6838 19.1414C15.2706 17.5224 14.712 13.9753 13.4781 11.7948L9.17996 11.7333C6.57138 11.5402 4.50551 10.6347 3.75087 9.17879C3.88159 9.03364 4.147 8.87398 4.39261 8.79024L13.2146 8.80252V5.12141C10.0317 4.09757 8.86899 2.06665 9.48498 0.00334951L24.6215 0C25.0077 1.11985 24.7463 2.19058 24.0273 3.1999C23.2865 3.98816 22.4011 4.64354 20.9334 5.10578L20.9096 8.79471H29.702C31.5163 9.24689 28.2422 11.6999 24.7383 11.7345L20.6898 11.7747C19.6737 13.5499 19.2776 15.4725 19.9886 17.3505C20.1649 17.8172 20.4105 18.4636 20.9928 18.7897C23.2964 20.0826 23.4865 22.0554 21.177 23.3863C19.4182 24.399 19.7093 26.1586 21.2523 27.3946L24.7264 25.4172C24.4432 24.9729 24.1184 24.3007 24.7641 23.9501L28.3194 22.0197C28.9176 21.6948 30.1833 21.8288 30.9419 22.042C34.1843 20.3662 38.3358 19.5388 42.7765 19.6561C50.115 19.8503 53.7536 23.2479 54.4409 27.1802C54.938 30.0273 54.3458 32.8889 51.1747 35.1442C48.5919 36.9809 45.29 37.8127 44.1115 39.4238C42.9568 41.0048 44.4799 42.6706 47.3005 43.2947C50.8875 44.0885 54.1636 43.4778 54.944 43.9255C55.1222 44.0283 54.8727 44.4503 54.6172 44.4492L50.632 44.4291C48.9623 44.4201 47.352 44.1734 45.9219 43.7257C43.0321 42.8191 41.6436 40.9166 42.8974 39.1726C43.4876 38.3519 44.579 37.6843 45.7238 37.1037L48.7563 35.5651C53.8526 32.9793 54.1913 28.0913 52.1314 24.6C51.0876 22.8314 48.9385 21.2917 45.6505 20.71L45.6446 20.7089ZM19.6598 8.78689V4.7351C22.3437 3.93903 23.845 2.41053 23.4132 0.730194H10.6734C10.3565 2.40272 11.745 3.97252 14.4704 4.71723L14.4922 8.79694L19.6618 8.78578L19.6598 8.78689ZM24.4591 11.0244C26.3902 11.0233 27.9451 10.4293 28.7393 9.51374H5.41465C6.19703 10.5242 7.98163 11.0367 9.92074 11.0344L24.461 11.0233L24.4591 11.0244ZM20.2699 27.8523C18.9943 26.7381 18.5566 25.7578 18.7408 24.5877C18.9369 23.9647 19.434 23.3919 20.1966 22.9464C22.0307 21.8757 21.8703 20.355 20.0896 19.2932C19.4221 18.8946 19.0359 18.2448 18.8042 17.6877C17.9743 15.7059 18.3347 13.7386 19.3092 11.7869L14.8348 11.7802C15.7479 13.6057 16.0787 15.4279 15.5499 17.2835C15.2785 18.237 14.5635 18.9929 13.5177 19.7119C12.1391 20.6598 12.3154 21.9974 13.793 22.8593C14.5793 23.3182 15.0745 23.8385 15.33 24.466C15.5836 25.683 15.1577 26.824 13.8465 27.8601L20.2719 27.8512L20.2699 27.8523ZM27.4202 25.3145L30.8508 23.4578C30.9815 23.2356 30.7022 22.7934 30.3952 22.674C30.0882 22.5545 29.1394 22.5032 28.8582 22.6584L25.699 24.3878C25.4019 24.5508 25.7425 25.051 26.0258 25.1939C26.2793 25.3223 27.135 25.4697 27.4202 25.3145ZM23.5975 28.5825L10.6021 28.587V29.7314L23.5994 29.7269V28.5825H23.5975ZM29.6722 45.2732L29.1355 44.189C33.5089 42.224 34.0852 38.7796 30.72 36.2976C28.6463 34.768 25.5762 33.9462 21.9852 33.8223L21.9337 30.4248H12.2282L12.1847 33.8223C8.92247 33.935 6.15147 34.6228 4.05391 35.9213C0.0628069 38.3933 0.419332 42.1123 5.04228 44.2259L4.50353 45.2732H29.6703H29.6722Z" fill="white"/>
</g>
<defs>
<clipPath id="clip0_2191_103">
<rect width="55" height="46" fill="white"/>
</clipPath>
</defs>
</svg>
