<svg width="58" height="45" viewBox="0 0 58 45" fill="none" xmlns="http://www.w3.org/2000/svg">
<g clip-path="url(#clip0_2078_111)">
<path d="M29.7997 44.0919C30.0463 44.2884 30.1889 44.565 30.0956 44.7547C29.9756 44.996 29.6025 45.0543 29.3813 44.8767L21.9532 38.9017L21.9492 44.5121C21.9026 44.6842 21.692 44.9608 21.5428 44.9933C21.3655 45.0312 21.0683 44.7357 21.0683 44.5162L21.0737 38.9044L13.6163 44.8849C13.447 45.0204 13.0659 44.9947 12.9526 44.8469C12.834 44.6924 12.89 44.3332 13.0672 44.1908L21.0577 37.8105L21.0643 36.0605L4.45579 36.051C3.49763 36.051 2.53814 35.1944 2.53681 34.1764L2.52748 5.99276C1.54134 6.16897 0.703112 5.90194 0.226031 5.1171C-0.0844711 4.60743 -0.077808 3.87953 0.246021 3.3319C0.51921 2.86832 1.08691 2.45896 1.78254 2.45896L21.071 2.45625L21.0657 0.530079C21.0657 0.351153 21.2642 0.0380317 21.4255 0.00414414C21.5867 -0.0297434 21.9386 0.226447 21.9386 0.410795L21.9412 2.4576H41.203C42.2118 2.4576 42.9794 3.0974 43.066 4.04219C43.146 4.92191 42.5916 5.9304 41.6028 5.98733L40.5194 6.04969L40.5234 31.4586C40.5234 31.7555 40.3035 31.9696 40.0623 31.9872C39.8717 32.0008 39.6479 31.7433 39.6479 31.4572L39.6452 6.03749L3.39902 6.03342V33.8863C3.39902 34.64 3.84545 35.1415 4.58773 35.193L36.788 35.1957C37.0332 35.1957 37.2691 35.3516 37.3197 35.5088C37.3771 35.6837 37.1545 36.0632 36.932 36.0632H21.9559L21.9425 37.8051L29.7944 44.0946L29.7997 44.0919ZM42.2292 3.32919L0.872356 3.33597V5.16454L42.2292 5.15777V3.32919Z" fill="white"/>
<path d="M27.2243 30.1424L14.9535 30.1274L14.9348 21.6623C12.4775 21.1987 10.8876 18.7968 11.498 16.3582C12.1123 13.9007 14.683 12.3595 17.167 13.3572C17.8893 11.5679 19.4724 10.4225 21.3048 10.4049C23.1372 10.3873 24.8256 11.4771 25.5212 13.3558C27.8627 12.3826 30.4213 13.776 31.1129 16.1834C31.7966 18.5582 30.3493 21.1486 27.7307 21.6705L27.7134 29.5812C27.7134 29.8672 27.5175 30.0976 27.2243 30.1424ZM26.8405 25.5892L26.8512 20.9154C28.2211 20.8382 29.2952 20.2187 29.9589 19.0652C30.7291 17.7287 30.4759 16.0749 29.4818 14.9987C28.457 13.8899 26.7512 13.6161 25.4706 14.3589C25.3506 14.428 24.9575 14.5026 24.9215 14.3914L24.767 13.9021C24.2219 11.7685 21.9218 10.7573 19.9455 11.5977C18.8834 12.0491 18.0838 12.9397 17.9013 14.1176C17.756 15.0502 16.2155 13.204 14.1606 14.2816C13.3277 14.7194 12.5068 15.5775 12.2949 16.712C11.8884 18.8863 13.5182 20.8477 15.7877 20.9005L15.8264 25.5865H26.8419L26.8405 25.5892ZM26.8472 26.4378L15.7997 26.4473L15.8024 29.2748L26.8499 29.2653L26.8472 26.4378Z" fill="white"/>
<path d="M56.821 37.9649C56.2146 32.8275 48.6959 31.7648 43.6906 33.4348C40.6868 34.4379 39.4541 37.1394 39.4368 40.2977L39.4142 44.5228C39.4142 44.6923 39.145 44.9539 39.0051 44.9728C38.8371 44.9959 38.5293 44.7058 38.5293 44.5282V41.3672C38.5266 37.6491 39.2649 34.2467 42.9323 32.7923C46.1893 31.5005 49.8313 31.4598 53.1482 32.6079C56.5411 33.7832 57.7845 36.4928 57.9857 40.0212L58.0003 44.6096C57.9497 44.7383 57.6712 45.0393 57.5379 44.9959C57.4047 44.9525 57.2008 44.7654 57.1048 44.6367L57.1261 40.5553L56.821 37.9662V37.9649Z" fill="white"/>
<path d="M53.1932 25.3628C53.1932 28.1253 50.9917 30.3646 48.2758 30.3646C45.5599 30.3646 43.3584 28.1253 43.3584 25.3628C43.3584 22.6003 45.5599 20.361 48.2758 20.361C50.9917 20.361 53.1932 22.6003 53.1932 25.3628ZM52.323 25.3641C52.323 23.0923 50.512 21.2502 48.2785 21.2502C46.045 21.2502 44.2339 23.0923 44.2339 25.3641C44.2339 27.6359 46.045 29.4781 48.2785 29.4781C50.512 29.4781 52.323 27.6359 52.323 25.3641Z" fill="white"/>
</g>
<defs>
<clipPath id="clip0_2078_111">
<rect width="58" height="45" fill="white"/>
</clipPath>
</defs>
</svg>
