<svg width="55" height="46" viewBox="0 0 55 46" fill="none" xmlns="http://www.w3.org/2000/svg">
<g clip-path="url(#clip0_2191_21)">
<path d="M6.91793 29.968C3.80248 29.9656 1.33286 27.6967 0.600842 24.9322L0.00623404 22.0148C-0.0162511 21.9067 0.0249717 21.6569 0.083683 21.5774C0.157384 21.478 0.42221 21.396 0.628324 21.396H37.1418C37.2205 22.0483 37.1655 22.4335 37.0968 23.0908C37.8388 22.8671 38.5046 22.5304 39.1754 22.144C43.8186 19.4763 47.7023 18.6501 53.0675 18.6637C54.1955 18.6662 55.0375 19.4055 54.9975 20.4952C54.9575 21.5849 54.0743 22.2509 52.9413 22.1949C48.3056 21.9663 43.9098 23.1318 40.0086 25.5683C38.7494 26.3548 37.4403 26.6468 35.9863 26.5126C34.7708 28.5454 32.6685 29.9892 30.1926 29.9867L6.91918 29.968H6.91793ZM36.4247 25.6951C37.6739 25.8491 38.7057 25.3981 39.7213 24.793C43.7099 22.3329 48.2294 21.1574 52.9401 21.396C53.4797 21.4233 53.9444 21.1972 54.1293 20.7909C54.2705 20.4828 54.178 19.6043 53.6546 19.567C50.4642 19.3347 47.2801 19.7124 44.2346 20.7089C42.2546 21.3562 40.5233 22.2931 38.742 23.3231C38.1761 23.6499 37.5477 23.8102 36.9182 23.8636L36.4247 25.6963V25.6951ZM30.1963 29.1815C32.5048 29.1815 34.4285 27.7564 35.3917 25.8578C35.9888 24.6812 36.1949 23.4474 36.3535 22.2086H0.889402L1.40156 24.7557C2.09736 27.165 4.2347 29.1679 6.92542 29.1691L30.1951 29.1803L30.1963 29.1815Z" fill="white"/>
<path d="M22.7661 14.9858C22.9435 15.2082 22.8473 15.6655 22.6487 15.7239C22.3739 15.8034 22.184 15.6468 22.0129 15.4157C20.2903 13.1022 20.1304 10.1686 21.6856 7.72214C23.0897 5.51297 23.0472 2.90744 21.4208 0.817547C21.3433 0.718147 21.2546 0.479586 21.2621 0.360305C21.2709 0.217417 21.532 -0.00747601 21.6756 0.00122152C22.259 0.0347691 23.4632 2.43032 23.5431 4.04806C23.6156 5.52788 23.1359 6.90209 22.3839 8.16199C21.0723 10.3587 21.1272 12.922 22.7686 14.9871L22.7661 14.9858Z" fill="white"/>
<path d="M17.7272 15.5663C17.245 16.3466 16.1445 14.53 15.806 13.1471C15.4849 11.8388 15.8122 10.5279 16.483 9.38359C17.576 7.52108 16.8278 6.57429 17.5473 6.53577C18.2668 6.49725 18.1444 8.28149 17.2562 9.65943C16.1532 11.3704 16.3094 13.3621 17.6385 14.9513C17.7634 15.1016 17.8121 15.4284 17.7259 15.5675L17.7272 15.5663Z" fill="white"/>
<path d="M20.4866 44.1747C19.4248 44.7761 20.293 42.8627 18.6528 41.0449C17.8183 41.9581 17.4111 42.9061 17.3849 44.1076C17.16 44.3773 16.6941 44.1561 16.4155 43.9859C14.2145 42.6365 13.6261 39.8881 15.29 37.8715L16.7878 36.4066C17.6172 35.6822 18.1044 34.7404 18.0669 33.5936L18.4167 33.3202C18.5179 33.2407 18.8614 33.391 18.9613 33.4917C20.8289 35.3753 23.0199 38.0156 22.865 40.692C22.7776 42.2079 21.7782 43.4441 20.4878 44.1747H20.4866ZM18.6391 39.9639C19.1387 40.0496 20.3567 41.9581 20.569 43.1633C23.7145 40.8299 21.3023 37.1297 18.8327 34.5006C18.5891 35.4872 18.1082 36.2364 17.4161 36.9073L15.9034 38.3747C14.6917 39.9179 14.9752 42.0128 16.6541 43.2019C16.824 42.0364 18.2618 39.9005 18.6391 39.9651V39.9639Z" fill="white"/>
<path d="M25.6869 45.145H11.5225V45.9986H25.6869V45.145Z" fill="white"/>
</g>
<defs>
<clipPath id="clip0_2191_21">
<rect width="55" height="46" fill="white"/>
</clipPath>
</defs>
</svg>
