<svg width="55" height="46" viewBox="0 0 55 46" fill="none" xmlns="http://www.w3.org/2000/svg">
<g clip-path="url(#clip0_2191_79)">
<path d="M48.7586 45.9998L38.4711 45.9821C37.1124 45.9796 36.517 45.0154 36.3506 44.0639L34.1767 31.5448C33.2917 26.4463 32.6888 21.445 32.3666 16.3112C32.3295 15.7244 32.7378 15.2776 33.2531 14.9772C33.5144 11.9876 34.7766 9.64402 37.9232 8.11826L37.8994 2.64874C37.895 1.42586 38.7488 0.0389192 40.3837 0.0313472L46.7674 -0.00146484C48.1261 0.155023 49.1729 1.08891 49.1774 2.28781L49.1997 8.13467C52.3299 9.5418 53.6871 12.0393 53.791 14.9545C54.685 15.1274 55.0517 15.6814 54.9938 16.4437C54.5216 22.7625 53.644 28.9476 52.5586 35.2198L51.0335 44.0323C50.8613 45.0293 50.2168 46.0011 48.7601 45.9985L48.7586 45.9998ZM46.9218 7.62103L48.2582 7.76616L48.2642 2.40517C48.2642 1.60506 47.5989 0.823885 46.5832 0.821361L40.6792 0.810003C39.76 0.808741 38.8884 1.4776 38.8884 2.2815V7.75985L40.3703 7.62608L46.9233 7.61977L46.9218 7.62103ZM52.8348 14.9369C52.7813 13.3695 52.3774 12.1276 51.5414 10.9792C50.5376 9.70334 49.1432 8.77829 47.3613 8.43376H39.9278C36.4026 9.05719 34.3267 11.8639 34.2762 14.9432L52.8333 14.9356L52.8348 14.9369ZM48.7601 45.177C49.5531 45.177 50.0193 44.6356 50.0401 44.0563L52.0151 32.6036C52.9788 27.0117 53.6782 21.5485 54.0331 15.7622L33.853 15.7534C33.5352 15.7534 33.2962 16.055 33.3184 16.2973C33.7283 22.3688 34.5821 28.2926 35.6275 34.3288L37.3099 44.0412C37.4183 44.6659 37.7777 45.1858 38.6196 45.1845L48.7631 45.1757L48.7601 45.177Z" fill="white"/>
<path d="M10.5595 45.1104L17.0337 45.0978L17.0397 28.5504L7.5733 18.4696C4.4416 19.3378 1.08122 17.86 0.172451 15.1164C-0.6695 12.2403 1.67074 9.49925 5.03111 9.1522C8.45089 8.79884 11.4564 11.0717 11.3702 14.0967H10.4184C10.4585 11.9248 8.69887 10.2287 6.27845 9.9725C3.87436 9.71758 1.54897 11.0906 1.06192 13.1628C0.741176 14.5271 1.29802 15.8673 2.43993 16.7823C3.58183 17.6972 5.19445 18.1616 6.8739 17.7868L4.76383 15.6439C4.69255 15.572 4.6094 15.3436 4.61385 15.2515C4.61979 15.1354 4.9242 14.9372 5.07121 14.9372L23.3966 14.9297L27.9108 8.34831C28.089 8.23599 28.5077 8.17289 28.6577 8.26501C28.8077 8.35714 28.7795 8.70419 28.6681 8.86447L24.5103 14.9271L29.9748 14.9372C30.0743 14.9486 30.3564 14.9738 30.3698 15.0521L30.447 15.5076L26.9872 19.0614L17.993 28.5694L17.9871 45.0953L24.3544 45.0991C24.543 45.0991 24.8667 45.2732 24.9231 45.407C24.9899 45.5635 24.7152 45.9282 24.4747 45.9282H10.7005C10.5238 45.9282 10.2298 45.749 10.1719 45.6291C10.1021 45.4853 10.3739 45.1092 10.561 45.1092L10.5595 45.1104ZM18.3226 23.9656C18.039 24.0199 17.6173 24.0173 17.5728 23.8861C17.5371 23.7813 17.546 23.5655 17.5653 23.4103L22.7833 15.7512L6.16114 15.7563L14.1114 24.0994L17.5178 27.7579L28.8997 15.7689L23.8926 15.7537L18.3241 23.9656H18.3226Z" fill="white"/>
</g>
<defs>
<clipPath id="clip0_2191_79">
<rect width="55" height="46" fill="white"/>
</clipPath>
</defs>
</svg>
