<svg preserveAspectRatio="none" width="100%" height="100%" overflow="visible" style="display: block;" viewBox="0 0 154 75" fill="none" xmlns="http://www.w3.org/2000/svg">
<path id="Decoration" d="M139.451 25.5182L154 0L123.2 6.8993L92.4 13.8078L61.6 20.7071L30.8 27.6064L0 34.5057L10.8706 55.1116L8.85853 68.9746L1.6661 70.5936L1.01058 75L20.676 70.566L21.3042 66.1689L14.1208 67.7879L16.2513 53.1246L30.8 27.6064L41.6797 48.2123L39.6585 62.0753L32.4752 63.6943L31.8106 68.1007L51.476 63.6667L52.1133 59.2696L44.9208 60.8886L47.0513 46.2253L61.6 20.7071L72.4797 41.313L70.4676 55.176L63.2752 56.795L62.6106 61.1922L82.276 56.7674L82.9133 52.3703L75.7208 53.9893L77.8513 39.3168L92.4 13.8078L103.271 34.4137L101.259 48.2767L94.0661 49.8957L93.4106 54.2929L113.076 49.8681L113.704 45.471L106.521 47.09L108.651 32.4175L123.2 6.90849L134.08 27.5144L132.059 41.3774L124.875 42.9964L124.211 47.3936L143.876 42.9688L144.513 38.5717L137.321 40.1907L139.451 25.5182Z" fill="var(--fill-0, white)" fill-opacity="0.14"/>
</svg>
